# xmcd
#
# Track frame offsets: 
#        150
#        12693
#        22535
#        32730
#        42023
#        53298
#        63055
#        72363
#        82640
#        92860
#        111703
#        121388
#        131260
#        142320
#        153523
#        162183
#        172495
#        182955
#        194018
#        205375
#        219160
#        229475
#
# Disc length: 3231 seconds
#
# Revision: 0
# Processed by: cddbd v1.5.2PL0 Copyright (c) Steve Scherf et al.
# Submitted via: ExactAudioCopy v0.95b4
#
DISCID=3a0c9d16
DTITLE=Max Weilenmann - Die grosse Örgeliparade
DYEAR=1900
DGENRE=Folklore
TTITLE0=Schwyzerörgeli-Fründe
TTITLE1=Köbeli-Walzer
TTITLE2=Intermezzo im Hühnerstall
TTITLE3=Entlebucher-Ländler
TTITLE4=Rosalie-Mazurka
TTITLE5=Längi Zyti
TTITLE6=Dr Tambour-Mayor
TTITLE7=Örgeliwalzer
TTITLE8=Zwei alte Vorlksweisen
TTITLE9=Bärgdorf-Sunntig
TTITLE10=Schlittenfahrt im Emmental
TTITLE11=Trachten-Mazurka
TTITLE12=Au Lac de Doubs
TTITLE13=Dräiörgeli-Schtimmig
TTITLE14=Handörgeli-Walzer
TTITLE15=Jodlermarsch
TTITLE16=Marsch-Walzer
TTITLE17=Locker vom Hocker
TTITLE18=Am Chäferfescht
TTITLE19=En Neumödige
TTITLE20=Gueti Luune
TTITLE21=Stüdelbärger
EXTD=
EXTT0=
EXTT1=
EXTT2=
EXTT3=
EXTT4=
EXTT5=
EXTT6=
EXTT7=
EXTT8=
EXTT9=
EXTT10=
EXTT11=
EXTT12=
EXTT13=
EXTT14=
EXTT15=
EXTT16=
EXTT17=
EXTT18=
EXTT19=
EXTT20=
EXTT21=
PLAYORDER=
